<svg xmlns="http://www.w3.org/2000/svg" xmlns:xlink="http://www.w3.org/1999/xlink" style="isolation:isolate" viewBox="0 0 5 5" version="1.1" shape-rendering="crispEdges"><path d="M2 4h1v1H2V4z" fill="#3949AB"/><path d="M0 3h1v1H0V3zm2 0h1v1H2V3zm2 0h1v1H4V3z" fill-rule="evenodd" fill="#3949AB"/><path d="M0 2h2v1H0V2zm3 0h2v1H3V2z" fill-rule="evenodd" fill="#3949AB"/><path d="M0 1h1v1H0V1zm4 0h1v1H4V1z" fill-rule="evenodd" fill="#3949AB"/><path d="M0 0h1v1H0V0zm2 0h1v1H2V0zm2 0h1v1H4V0z" fill-rule="evenodd" fill="#3949AB"/></svg>